/* XPM */
static char *editcut[] = {
/* columns rows colors chars-per-pixel */
"24 24 9 1 ",
"  c #DFDFDFDFDFDF",
". c gray89",
"X c gray90",
"o c gray91",
"O c #EEEEEEEEEEEE",
"+ c gray94",
"@ c gray96",
"# c gray98",
"$ c white",
/* pixels */
"$$$$$$$$$$$$$$$$$$$$$$$$",
"$$$$$$$$$$$$$$$$$$$$$$$$",
"$$$$$$$$$$$$$$$$$$$$$$$$",
"$$$$$$$$$$$$$$$$$$$$$$$$",
"$$$$$$$@@$$$$$$@@$$$$$$$",
"$$$$$$$O.$$$$$$.O$$$$$$$",
"$$$$$$$$.O$$$$O.$$$$$$$$",
"$$$$$$$$+ #$$$ +$$$$$$$$",
"$$$$$$$$$.o$$o.$$$$$$$$$",
"$$$$$$$$$@ @# @$$$$$$$$$",
"$$$$$$$$$$o.Xo$$$$$$$$$$",
"$$$$$$$$$$#. #$$$$$$$$$$",
"$$$$$$$$$$$oO$$$$$$$$$$$",
"$$$$$$$$$$O  o$$$$$$$$$$",
"$$$$$$$$$# .O.#$$$$$$$$$",
"$$$$$#X.XX.$$XXX o#$$$$$",
"$$$$$XO$O @$$@ O$OX$$$$$",
"$$$$$.$$$ $$$$ $$$ $$$$$",
"$$$$$oO$Oo$$$$XO$OX$$$$$",
"$$$$$#X o#$$$$$X X$$$$$$",
"$$$$$$$$$$$$$$$$$$$$$$$$",
"$$$$$$$$$$$$$$$$$$$$$$$$",
"$$$$$$$$$$$$$$$$$$$$$$$$",
"$$$$$$$$$$$$$$$$$$$$$$$$"
};
