/* XPM */
static char *editpaste[] = {
/* columns rows colors chars-per-pixel */
"24 24 2 1 ",
"  c gray87",
". c white",
/* pixels */
"........................",
"........................",
"........................",
"........................",
"........        ........",
"........        ........",
".....              .....",
"..... .          . .....",
"..... .          . .....",
"..... ............ .....",
"..... ..        .. .....",
"..... ............ .....",
"..... ............ .....",
"..... ..      .... .....",
"..... ............ .....",
"..... ............ .....",
"..... ..   ....... .....",
"..... ............ .....",
"..... ............ .....",
".....              .....",
"........................",
"........................",
"........................",
"........................"
};
