/* XPM */
static char *editcopy[] = {
/* columns rows colors chars-per-pixel */
"24 24 3 1 ",
"  c gray87",
". c #EFEFEFEFEFEF",
"X c white",
/* pixels */
"XXXXXXXXXXXXXXXXXXXXXXXX",
"XXXXXXXXXXXXXXXXXXXXXXXX",
"XXXXXXXXXXXXXXXXXXXXXXXX",
"XXXXXXXXXXXXXXXXXXXXXXXX",
"XXXXX            XXXXXXX",
"XXXXX XXXXXXXXXX XXXXXXX",
"XXXXX XXXXXXXXXX XXXXXXX",
"XXXXX XXX          XXXXX",
"XXXXX XXX XXXXXXXX XXXXX",
"XXXXX XXX XXXXXXXX XXXXX",
"XXXXX XXX XXXXXXXX XXXXX",
"XXXXX XXX XXXXXXXX XXXXX",
"XXXXX XXX XXXXXXXX XXXXX",
"XXXXX XXX XXXXXXXX XXXXX",
"XXXXX XXX XXXXXXXX XXXXX",
"XXXXX XXX XXXX     XXXXX",
"XXXXX XXX XXXX    .XXXXX",
"XXXXX     XXXX   .XXXXXX",
"XXXXXXXXX XXXX  .XXXXXXX",
"XXXXXXXXX      .XXXXXXXX",
"XXXXXXXXXXXXXXXXXXXXXXXX",
"XXXXXXXXXXXXXXXXXXXXXXXX",
"XXXXXXXXXXXXXXXXXXXXXXXX",
"XXXXXXXXXXXXXXXXXXXXXXXX"
};
